<mxfile host="app.diagrams.net" modified="2023-06-19T04:28:51.186Z" agent="Mozilla/5.0 (Macintosh; Intel Mac OS X 10_15_7) AppleWebKit/537.36 (KHTML, like Gecko) Chrome/114.0.0.0 Safari/537.36" version="21.5.0" etag="taVz3PMZT6z1M8xFAzki" type="github">
  <diagram name="Page-1" id="XoQGM0N2wyLFz5QbwxTw">
    <mxGraphModel>
      <root>
        <mxCell id="0" />
        <mxCell id="1" parent="0" />
      </root>
    </mxGraphModel>
  </diagram>
</mxfile>
